<svg width="36" height="36" viewBox="0 0 36 36" fill="none" xmlns="http://www.w3.org/2000/svg">
<path d="M6.31121 0.789307H29.3275C32.8169 0.789307 35.6387 3.61031 35.6387 7.10052V29.2266C35.6387 32.716 32.8177 35.5378 29.3275 35.5378H6.31121C2.82179 35.5378 0 32.7168 0 29.2266V7.10052C0 3.6111 2.821 0.789307 6.31121 0.789307Z" fill="#001E36"/>
<path d="M8.01868 25.1574V9.87794C8.01868 9.7742 8.06303 9.7148 8.16757 9.7148C8.42021 9.7148 8.6578 9.7148 8.99914 9.69975C9.35552 9.6847 9.72696 9.6847 10.1277 9.66965C10.5284 9.65461 10.9593 9.65461 11.4194 9.63956C11.8795 9.62451 12.3254 9.62451 12.7705 9.62451C13.9886 9.62451 14.9975 9.7734 15.8291 10.0846C16.572 10.3373 17.2546 10.7531 17.8185 11.3027C18.2937 11.7779 18.6651 12.3568 18.9027 12.9959C19.1253 13.6192 19.2441 14.2583 19.2441 14.9268C19.2441 16.2034 18.9471 17.2583 18.3531 18.0899C17.7591 18.9215 16.9276 19.5455 15.9621 19.9019C14.9524 20.2733 13.8389 20.4064 12.6208 20.4064C12.2644 20.4064 12.0268 20.4064 11.8779 20.3914C11.7291 20.3763 11.5216 20.3763 11.2396 20.3763V25.1432C11.2547 25.2469 11.1802 25.3364 11.0765 25.3507C11.0614 25.3507 11.0464 25.3507 11.0171 25.3507H8.19687C8.07807 25.3507 8.01868 25.2913 8.01868 25.1574ZM11.2555 12.5801V17.5696C11.4637 17.5846 11.6562 17.5997 11.8344 17.5997H12.6216C13.2005 17.5997 13.7795 17.511 14.3291 17.332C14.8043 17.1981 15.2201 16.9162 15.5471 16.5448C15.8592 16.1733 16.0073 15.6688 16.0073 15.0155C16.0223 14.5553 15.9035 14.0952 15.6659 13.6937C15.4133 13.3072 15.0569 13.011 14.6269 12.847C14.0773 12.6245 13.4833 12.535 12.875 12.5501C12.4886 12.5501 12.1472 12.5501 11.8653 12.5651C11.5675 12.5501 11.36 12.5651 11.2555 12.5801Z" fill="#31A8FF"/>
<path d="M28.5108 16.6637C28.0658 16.4261 27.5906 16.2629 27.0853 16.1584C26.5357 16.0396 25.986 15.9652 25.4222 15.9652C25.1252 15.9501 24.8131 15.9945 24.5312 16.0689C24.338 16.1133 24.1748 16.2178 24.0711 16.3659C23.9966 16.4847 23.9523 16.6336 23.9523 16.7666C23.9523 16.9005 24.0117 17.0343 24.1012 17.1531C24.235 17.3163 24.4132 17.4501 24.6064 17.5539C24.9478 17.7321 25.3042 17.8952 25.6605 18.0441C26.462 18.3118 27.235 18.6824 27.9478 19.1283C28.438 19.4403 28.8387 19.8561 29.1207 20.3606C29.3583 20.8358 29.477 21.3553 29.462 21.8899C29.477 22.5876 29.2688 23.2853 28.8831 23.8651C28.4673 24.459 27.8884 24.9192 27.2199 25.1869C26.4921 25.4989 25.6011 25.6621 24.532 25.6621C23.8485 25.6621 23.1809 25.6027 22.5125 25.4688C21.9929 25.3793 21.4734 25.2162 20.9982 24.9936C20.8945 24.9342 20.82 24.8305 20.8351 24.7117V22.1283C20.8351 22.0839 20.8501 22.0245 20.8945 21.9944C20.9388 21.9643 20.9832 21.9794 21.0283 22.0095C21.6072 22.3508 22.2163 22.5884 22.8696 22.7373C23.4335 22.8862 24.0275 22.9598 24.6215 22.9598C25.1862 22.9598 25.5869 22.8854 25.8538 22.7524C26.0914 22.6486 26.2545 22.396 26.2545 22.1283C26.2545 21.9208 26.1357 21.7275 25.8981 21.5343C25.6605 21.3411 25.1703 21.1185 24.4425 20.8366C23.6854 20.5689 22.9869 20.2125 22.3343 19.7674C21.8741 19.4411 21.4877 19.0103 21.2057 18.505C20.9681 18.0298 20.8493 17.5103 20.8644 16.9908C20.8644 16.3524 21.0426 15.7434 21.3696 15.1938C21.7411 14.5998 22.2899 14.1246 22.929 13.8276C23.6268 13.4713 24.5035 13.3081 25.5576 13.3081C26.1666 13.3081 26.7899 13.3525 27.3989 13.4419C27.844 13.5013 28.2748 13.6201 28.6764 13.7833C28.7358 13.7983 28.7952 13.8577 28.8253 13.9171C28.8403 13.9765 28.8546 14.0359 28.8546 14.0953V16.5156C28.8546 16.575 28.8253 16.6344 28.7801 16.6645C28.6447 16.6938 28.5702 16.6938 28.5108 16.6637Z" fill="#31A8FF"/>
</svg>
