<svg width="178" height="33" viewBox="0 0 178 33" fill="none" xmlns="http://www.w3.org/2000/svg">
<g clip-path="url(#clip0_0_448)">
<path d="M10.0242 0.153614C4.51482 1.09711 0.744986 4.95843 0 9.86402H4.5795C4.99792 8.15937 6.03715 6.66354 7.50156 5.65811C8.96598 4.65268 10.7546 4.20702 12.5306 4.40499C14.3067 4.60297 15.9477 5.43093 17.1448 6.73303C18.3419 8.03513 19.0124 9.72155 19.0303 11.4748C19.0314 13.139 18.4441 14.7521 17.3684 16.039C16.2926 17.3259 14.7951 18.2069 13.1312 18.5318C11.4673 18.8568 9.73997 18.6056 8.24379 17.8209C6.74761 17.0363 5.57521 15.7669 4.9265 14.2292H0.115661C0.171212 14.4874 0.231328 14.7517 0.29601 15.0144C2.14135 22.1429 6.74902 27.6151 11.6938 33.0036C16.3981 28.0308 20.6214 22.8759 22.7217 16.4058C23.2729 14.6241 23.5298 12.7674 23.4827 10.906C23.3647 4.33665 16.6195 -0.980971 10.0242 0.153614Z" fill="white"/>
<path d="M11.7029 15.4267C13.9051 15.4267 15.6903 13.6755 15.6903 11.5153C15.6903 9.35517 13.9051 7.604 11.7029 7.604C9.50064 7.604 7.71539 9.35517 7.71539 11.5153C7.71539 13.6755 9.50064 15.4267 11.7029 15.4267Z" fill="#F9B400"/>
<path d="M87.4268 17.5949C87.4268 17.4046 87.4268 17.2135 87.4085 17.0231C87.2867 15.5625 86.7338 14.1683 85.8173 13.0109C84.9008 11.8534 83.6604 10.983 82.2478 10.5058C80.8351 10.0286 79.3113 9.9654 77.8627 10.3239C76.414 10.6824 75.1031 11.447 74.0903 12.5244C73.0774 13.6018 72.4065 14.9453 72.1594 16.3906C71.9123 17.836 72.0997 19.3206 72.6989 20.6632C73.298 22.0057 74.2829 23.148 75.5331 23.9505C76.7833 24.7529 78.2447 25.1808 79.7387 25.1817C79.9472 25.1817 80.1596 25.1728 80.3726 25.1549C81.5495 25.0582 82.6877 24.6965 83.6988 24.0979V24.9936H87.4413V17.5904H87.4276L87.4268 17.5949ZM80.0629 21.5018C79.0183 21.5844 77.9831 21.2571 77.1842 20.5919C76.3853 19.9266 75.888 18.9777 75.8015 17.9532C75.7163 16.9284 76.0495 15.9123 76.7279 15.1284C77.4064 14.3445 78.3744 13.857 79.4192 13.7732C79.5303 13.7642 79.6368 13.7597 79.7433 13.7597C80.7623 13.7622 81.7409 14.1506 82.4749 14.8438C83.2089 15.537 83.6416 16.4815 83.6828 17.4802C83.7239 18.4789 83.3703 19.4545 82.6957 20.2036C82.021 20.9526 81.0776 21.4172 80.0622 21.5003L80.0629 21.5018Z" fill="#F9B400"/>
<path d="M43.5007 11.9638C43.5007 7.99799 40.2286 5.25781 35.5106 5.25781H31.307V8.94672H34.6332C36.8073 8.94672 38.4723 10.0537 38.4723 11.9638C38.4723 13.7605 36.8073 14.922 34.6332 14.922H31.307V18.3339H34.5792L38.645 25.0041H42.933V23.0118L39.3801 17.5531C40.576 17.1603 41.6164 16.41 42.3554 15.4076C43.0945 14.4051 43.495 13.2009 43.5007 11.9638Z" fill="white"/>
<path d="M66.1371 10.7935L62.9411 20.6218L59.5829 10.7935H55.7484L52.5569 20.5128L49.3959 10.7935H45.3323V12.7902L49.4263 24.9982H54.9265L57.666 15.9461L60.4299 24.9982H65.9393L70.0333 12.7924V10.7935H66.1371Z" fill="white"/>
<path d="M99.5322 10.2395C98.6337 10.251 97.7529 10.486 96.9722 10.9224C96.1915 11.3589 95.5364 11.9824 95.0684 12.7348V10.7941H90.7202V25.0011H95.2099V17.0515C95.2099 15.3347 96.3384 14.1202 97.8931 14.1202C99.4706 14.1202 100.544 15.3683 100.544 17.1373V25.0011H105.033V16.0886C105.037 12.7035 102.724 10.2395 99.5322 10.2395Z" fill="white"/>
<path d="M119.154 4.42773V11.7921C118.045 10.7768 116.578 10.2223 115.06 10.2447C110.791 10.2447 107.691 13.4843 107.691 17.9173C107.691 22.3504 111.138 25.5586 115.818 25.5586C120.393 25.5586 123.64 22.5729 123.64 18.4481V4.43222H119.151L119.154 4.42773ZM115.764 21.6794C115.271 21.6801 114.783 21.5812 114.331 21.3889C113.879 21.1966 113.472 20.915 113.136 20.5617C112.799 20.2084 112.541 19.791 112.376 19.3354C112.211 18.8798 112.144 18.3958 112.179 17.9136C112.179 15.6997 113.678 14.1202 115.764 14.1202C117.849 14.1202 119.348 15.6989 119.348 17.9136C119.326 20.0999 117.855 21.6794 115.764 21.6794H115.764Z" fill="white"/>
<path d="M152.072 7.75316C152.585 7.75103 153.097 7.81503 153.594 7.9435V4.35016C152.604 4.05028 151.576 3.89141 150.541 3.87842C147.663 3.87842 145.772 5.98858 145.772 9.16915V10.7979H143.769V14.124H145.778V25.0048H150.267V14.1195H153.487V10.7934H150.267V9.68643C150.24 9.43984 150.266 9.19036 150.345 8.95462C150.424 8.71887 150.553 8.50228 150.723 8.31932C150.894 8.13636 151.103 7.99122 151.335 7.8936C151.568 7.79597 151.819 7.74809 152.072 7.75316Z" fill="white"/>
<path d="M165.024 10.7935V18.743C165.024 20.4598 163.895 21.6832 162.341 21.6832C160.763 21.6832 159.69 20.4352 159.69 18.6661V10.7979H155.201V19.7186C155.201 23.0947 157.513 25.558 160.701 25.558C161.599 25.5473 162.48 25.3132 163.26 24.8776C164.041 24.4419 164.696 23.819 165.165 23.0671V25.0079H169.513V10.7979H165.023L165.024 10.7935Z" fill="white"/>
<path d="M173.295 4.42773V24.9995H177.785V4.42773H173.295Z" fill="white"/>
<path d="M141.678 17.5951C141.678 17.4048 141.678 17.2137 141.66 17.0233C141.536 15.5362 140.965 14.1185 140.02 12.9494C139.075 11.7804 137.797 10.9126 136.349 10.4556C134.901 9.99861 133.347 9.97304 131.884 10.3821C130.421 10.7912 129.115 11.6165 128.13 12.7537C127.181 13.8514 126.572 15.1924 126.375 16.6185C126.177 18.0446 126.399 19.4964 127.015 20.8026C127.631 22.1089 128.615 23.2152 129.851 23.9911C131.086 24.7671 132.522 25.1802 133.99 25.1819C134.198 25.1819 134.41 25.1729 134.624 25.155C135.8 25.0584 136.939 24.6967 137.95 24.0981V24.9938H141.692V17.5906H141.678V17.5951ZM134.319 21.502C133.275 21.5845 132.239 21.2573 131.44 20.5921C130.641 19.9268 130.144 18.9778 130.058 17.9534C129.972 16.9286 130.306 15.9125 130.984 15.1286C131.663 14.3447 132.631 13.8572 133.675 13.7733C133.786 13.7644 133.893 13.7599 134 13.7599C135.018 13.7624 135.997 14.1508 136.731 14.844C137.465 15.5372 137.898 16.4817 137.939 17.4804C137.98 18.4791 137.626 19.4547 136.952 20.2038C136.277 20.9528 135.334 21.4174 134.318 21.5005L134.319 21.502Z" fill="white"/>
<path d="M107.054 32.3961H105.704L105.482 32.8724H104.954L106.115 30.3345H106.648L107.809 32.8724H107.277L107.054 32.3961ZM106.374 30.8764L105.893 31.9565H106.855L106.374 30.8764Z" fill="white"/>
<path d="M112.66 31.5884C112.673 31.7592 112.649 31.9307 112.589 32.0914C112.528 32.2522 112.434 32.3984 112.312 32.5204C112.189 32.6424 112.041 32.7373 111.878 32.7988C111.715 32.8602 111.541 32.8868 111.367 32.8768H110.357V30.3389H111.37C111.541 30.3286 111.712 30.3538 111.872 30.4127C112.032 30.4717 112.178 30.5631 112.3 30.681C112.421 30.7989 112.516 30.9406 112.579 31.097C112.641 31.2533 112.669 31.4208 112.66 31.5884ZM110.834 32.4185H111.367C111.586 32.4185 111.796 32.3332 111.951 32.1813C112.105 32.0294 112.192 31.8234 112.192 31.6086C112.192 31.3938 112.105 31.1878 111.951 31.0359C111.796 30.884 111.586 30.7987 111.367 30.7987H110.834V32.4185Z" fill="white"/>
<path d="M116.639 32.8864H116.134L115.061 30.3411H115.607L116.384 32.3147L117.166 30.3411H117.711L116.639 32.8864Z" fill="white"/>
<path d="M122.227 32.8775H120.293V30.3396H122.227V30.8024H120.774V31.3831H122.171V31.831H120.774V32.4028H122.227V32.8775Z" fill="white"/>
<path d="M126.663 30.3359H127.149V32.8738H126.844V32.8783L125.484 31.1675V32.8783H124.999V30.3404H125.392L126.66 31.9079L126.663 30.3359Z" fill="white"/>
<path d="M130.556 30.777H129.734V30.3411H131.865V30.777H131.043V32.8775H130.556V30.777Z" fill="white"/>
<path d="M136.789 30.3457V31.7975C136.805 31.9472 136.787 32.0985 136.737 32.2408C136.687 32.3831 136.606 32.5129 136.499 32.621C136.393 32.7292 136.263 32.8131 136.12 32.8668C135.976 32.9206 135.823 32.9428 135.67 32.9321C135.516 32.9425 135.361 32.9202 135.216 32.8668C135.072 32.8133 134.94 32.7299 134.831 32.6223C134.723 32.5146 134.639 32.3853 134.585 32.2429C134.532 32.1006 134.51 31.9487 134.522 31.7975V30.3457H135.008V31.7975C134.996 31.8881 135.005 31.9802 135.033 32.0671C135.062 32.154 135.11 32.2336 135.173 32.3004C135.237 32.3671 135.315 32.4192 135.401 32.4531C135.488 32.4869 135.581 32.5017 135.674 32.4962C136.076 32.4962 136.303 32.2327 136.303 31.7975V30.3457H136.789Z" fill="white"/>
<path d="M141.845 32.8775H141.267L140.513 32.0288H140.047V32.8775H139.561V30.3396C139.973 30.3396 140.38 30.3441 140.792 30.3441C140.91 30.3341 141.03 30.3485 141.142 30.3862C141.255 30.4239 141.358 30.4842 141.445 30.5632C141.533 30.6421 141.602 30.7381 141.65 30.845C141.698 30.9518 141.722 31.0672 141.722 31.1838C141.736 31.3726 141.677 31.5597 141.555 31.7072C141.434 31.8547 141.261 31.9515 141.07 31.978L141.851 32.8446V32.8767L141.845 32.8775ZM140.045 30.7875V31.5996H140.786C140.843 31.6044 140.9 31.5975 140.954 31.5794C141.009 31.5613 141.058 31.5324 141.101 31.4944C141.143 31.4564 141.176 31.4103 141.199 31.3589C141.222 31.3075 141.234 31.2519 141.234 31.1958C141.234 31.1396 141.222 31.0841 141.199 31.0326C141.176 30.9812 141.143 30.9351 141.101 30.8971C141.058 30.8592 141.009 30.8302 140.954 30.8121C140.9 30.794 140.843 30.7871 140.786 30.7919H140.047L140.045 30.7875Z" fill="white"/>
<path d="M146.257 32.8775H144.324V30.3396H146.257V30.8024H144.805V31.3831H146.202V31.831H144.805V32.4028H146.257V32.8775Z" fill="white"/>
<path d="M153.793 32.3961H152.442L152.22 32.8724H151.693L152.854 30.3345H153.387L154.548 32.8724H154.015L153.793 32.3961ZM153.117 30.8764L152.637 31.9565H153.598L153.117 30.8764Z" fill="white"/>
<path d="M159.459 32.877H159.048L158.729 32.0783L158.456 31.2796L158.187 32.0873L157.875 32.877H157.463L156.515 30.3391H157.061L157.669 32.1679L158.299 30.3391H158.618L159.265 32.1679L159.857 30.3391H160.403L159.459 32.877Z" fill="white"/>
<path d="M164.812 32.3961H163.461L163.239 32.8724H162.712L163.873 30.3345H164.406L165.567 32.8724H165.034L164.812 32.3961ZM164.132 30.8764L163.651 31.9565H164.613L164.132 30.8764Z" fill="white"/>
<path d="M168.032 32.8775V30.3396H168.512V32.8775H168.032Z" fill="white"/>
<path d="M172.049 30.777H171.228V30.3411H173.358V30.777H172.536V32.8775H172.049V30.777Z" fill="white"/>
<path d="M177.533 30.9562C177.461 30.8646 177.367 30.7912 177.26 30.7423C177.153 30.6933 177.035 30.6702 176.917 30.6748C176.557 30.6748 176.381 30.8241 176.381 31.0107C176.381 31.2347 176.649 31.2922 176.959 31.3287C177.5 31.3922 178 31.5333 178 32.1364C178 32.7037 177.491 32.944 176.913 32.944C176.682 32.9746 176.447 32.9304 176.244 32.8182C176.041 32.706 175.881 32.5318 175.789 32.3222L176.196 32.1132C176.261 32.2443 176.366 32.353 176.495 32.425C176.625 32.4971 176.773 32.5291 176.922 32.517C177.226 32.517 177.518 32.4126 177.518 32.1356C177.518 31.8953 177.264 31.7997 176.922 31.7624C176.394 31.699 175.909 31.5631 175.909 30.9958C175.909 30.4733 176.432 30.2606 176.908 30.2561C177.109 30.2355 177.312 30.272 177.492 30.3614C177.673 30.4507 177.823 30.589 177.926 30.7599L177.533 30.9562Z" fill="white"/>
</g>
<defs>
<clipPath id="clip0_0_448">
<rect width="178" height="33" fill="white"/>
</clipPath>
</defs>
</svg>
