<svg width="36" height="36" viewBox="0 0 36 36" fill="none" xmlns="http://www.w3.org/2000/svg">
<path d="M6.59049 0.765625H29.3576C32.9952 0.765625 35.9481 3.71871 35.9481 7.35657V29.2265C35.9481 32.8644 32.9952 35.8175 29.3576 35.8175H6.59049C2.95288 35.7747 0 32.8644 0 29.2265V7.35657C0 3.67591 2.95288 0.765625 6.59049 0.765625Z" fill="#FF26BE"/>
<path d="M6.89015 2.26343H29.0582C32.0538 2.26343 34.4504 4.66014 34.4504 7.65602V28.9268C34.4504 31.9227 32.0538 34.3194 29.0582 34.3194H6.89015C3.89447 34.3194 1.49792 31.9227 1.49792 28.9268V7.61322C1.49792 4.66014 3.89447 2.26343 6.89015 2.26343Z" fill="#2E001F"/>
<path d="M14.2939 17.1575L18.4879 25.2892C18.5735 25.4176 18.5307 25.546 18.4023 25.546H15.7918C15.6634 25.546 15.535 25.5032 15.4922 25.332C14.5507 23.3633 13.5664 21.309 12.5393 19.1691C11.6406 21.1806 10.6563 23.3633 9.71482 25.332C9.67203 25.4176 9.54364 25.5032 9.45805 25.5032H6.97592C6.80474 25.5032 6.80474 25.3748 6.89033 25.2892L10.9131 17.4143L6.93312 9.53943C6.89033 9.49663 6.89033 9.41104 6.93312 9.36824C6.97592 9.32544 7.01871 9.32544 7.06151 9.32544H9.62923C9.75762 9.32544 9.84321 9.36824 9.886 9.49663C10.8275 11.5082 11.769 13.4769 12.6677 15.4884H12.7105C13.5664 13.5197 14.5507 11.5082 15.4494 9.53943C15.535 9.41104 15.5778 9.32544 15.7062 9.32544H18.1027C18.2311 9.32544 18.2739 9.41104 18.1883 9.53943L14.2939 17.1575ZM19.3866 19.597C19.3866 16.0876 21.6547 13.3913 25.3351 13.3913C25.5919 13.3913 25.8487 13.3913 26.1055 13.4341V9.53943C26.1055 9.45383 26.191 9.36824 26.2766 9.36824H28.6732C28.8016 9.36824 28.8016 9.41104 28.8016 9.49663V23.1921C28.8016 23.6629 28.8016 24.1765 28.8872 24.6473C28.8872 24.7329 28.8872 24.7756 28.8016 24.8184C27.6033 25.3748 26.2766 25.6744 24.95 25.6744C21.7403 25.6744 19.3866 23.6629 19.3866 19.597ZM26.1055 15.788C25.8487 15.6596 25.5491 15.6168 25.2495 15.6596C23.3666 15.6596 22.1255 17.1147 22.1255 19.5114C22.1255 22.2505 23.4093 23.3633 25.0784 23.3633C25.4207 23.3633 25.7631 23.3205 26.1055 23.1921V15.788Z" fill="white"/>
<g opacity="0.15">
<path opacity="0.15" d="M14.2941 17.1575L18.488 25.2892C18.5736 25.4176 18.5308 25.546 18.4024 25.546H15.7919C15.6635 25.546 15.5351 25.5032 15.4923 25.332C14.5508 23.3633 13.5665 21.309 12.5394 19.1691C11.6407 21.1806 10.6564 23.3633 9.71495 25.332C9.67215 25.4176 9.54376 25.5032 9.45817 25.5032H6.97604C6.80486 25.5032 6.80486 25.3748 6.89045 25.2892L10.9132 17.4143L6.93324 9.53943C6.89045 9.49663 6.89045 9.41104 6.93324 9.36824C6.97604 9.32544 7.01884 9.32544 7.06163 9.32544H9.62935C9.75774 9.32544 9.84333 9.36824 9.88613 9.49663C10.8276 11.5082 11.7691 13.4769 12.6678 15.4884H12.7106C13.5665 13.5197 14.5508 11.5082 15.4495 9.53943C15.5351 9.41104 15.5779 9.32544 15.7063 9.32544H18.1028C18.2312 9.32544 18.274 9.41104 18.1884 9.53943L14.2941 17.1575ZM19.3867 19.597C19.3867 16.0876 21.6549 13.3913 25.3353 13.3913C25.592 13.3913 25.8488 13.3913 26.1056 13.4341V9.53943C26.1056 9.45383 26.1912 9.36824 26.2768 9.36824H28.6733C28.8017 9.36824 28.8017 9.41104 28.8017 9.49663V23.1921C28.8017 23.6629 28.8017 24.1765 28.8873 24.6473C28.8873 24.7329 28.8873 24.7756 28.8017 24.8184C27.6034 25.3748 26.2768 25.6744 24.9501 25.6744C21.7405 25.6744 19.3867 23.6629 19.3867 19.597ZM26.1056 15.788C25.8488 15.6596 25.5492 15.6168 25.2497 15.6596C23.3667 15.6596 22.1256 17.1147 22.1256 19.5114C22.1256 22.2505 23.4095 23.3633 25.0785 23.3633C25.4209 23.3633 25.7632 23.3205 26.1056 23.1921V15.788Z" fill="#FF26BE"/>
</g>
</svg>
